PathFileType	4	(X/Y/Z)	6_coords_data.trc
DataRate	CameraRate	NumFrames	NumMarkers	Units	OrigDataRate	OrigDataStartFrame	OrigNumFrames
30.0	30.0	8	21	m	30.0	11	72
Frame#	Time	THUMB_TIP	THUMB_IP	THUMB_MCP	THUMB_CMC	INDEX_TIP	INDEX_DIP	INDEX_PIP	INDEX_MCP	MIDDLE_TIP	MIDDLE_DIP	MIDDLE_PIP	MIDDLE_MCP	RING_TIP	RING_DIP	RING_PIP	RING_MCP	PINKY_TIP	PINKY_DIP	PINKY_PIP	PINKY_MCP	WRIST
X1	Y1	Z1	X2	Y2	Z2	X3	Y3	Z3	X4	Y4	Z4	X5	Y5	Z5	X6	Y6	Z6	X7	Y7	Z7	X8	Y8	Z8	X9	Y9	Z9	X10	Y10	Z10	X11	Y11	Z11	X12	Y12	Z12	X13	Y13	Z13	X14	Y14	Z14	X15	Y15	Z15	X16	Y16	Z16	X17	Y17	Z17	X18	Y18	Z18	X19	Y19	Z19	X20	Y20	Z20	X21	Y21	Z21
9	0.33333333333333187	0.49535057339686983	-0.031107281370610695	-0.16981657918215284	0.49068730415116824	-0.032865486957542545	-0.14738529225838998	0.4716077626989804	-0.030094702778317273	-0.12294937907704144	0.471706829178724	-0.02908271278710861	-0.07835278658288014	0.5684841836980575	0.02888781772348159	-0.17093145448183789	0.5539058966902923	0.025390117135870582	-0.16077076363334492	0.5342305979492986	0.019638973623341438	-0.14621683630251964	0.5035992919972533	0.007352072816526833	-0.11930231869146646	0.594777241943133	0.03797766195091645	-0.14090233913252892	0.5785326323585532	0.034517584777201016	-0.13368149947245386	0.5527668964085265	0.028487016296298573	-0.12146803785214963	0.515782965971781	0.015188544177279328	-0.10021980381377257	0.6040168165021976	0.03491411732896743	-0.10721036378227053	0.5875822618811378	0.02960343455407788	-0.10204295990102671	0.5649117159703695	0.021881029292034837	-0.09521721568691194	0.5281026436075212	0.010241380941255596	-0.08320340646348923	0.6041692745698333	0.0103610513322977	-0.0727363697204988	0.5873934271851996	0.008777254776830556	-0.0697259655950751	0.5667402592167824	0.006678770611277307	-0.0665866924188018	0.5313369112736838	0.0002313046557724796	-0.06415428863396042	0.4622830810018609	-0.023011742144276925	-0.051989820119430985
10	0.3666666666666651	0.4954237251282557	-0.031084061581363565	-0.16979609694606018	0.49075241270178804	-0.032830202830785415	-0.14736554120280232	0.4716465884114659	-0.030070777071054544	-0.12294888607430722	0.47171229393416636	-0.029078564344525604	-0.07835178755108932	0.568565183621941	0.028777272368275764	-0.1708719891104623	0.5539678537199924	0.025338614037956897	-0.16071848781184586	0.5342710269621558	0.019646936266437764	-0.14617030397959474	0.5036048689914913	0.007404072952395424	-0.11927541325306613	0.5948639585212422	0.03780063473952755	-0.1408381277792191	0.5786071459506352	0.03438833850898826	-0.1336220152884662	0.5528175496459774	0.02844044715308769	-0.12141837399329553	0.5158042301363641	0.015212027747645629	-0.10017758728674889	0.6041050106034339	0.03469827800205927	-0.10717130807430944	0.5876528092356881	0.029450321138508206	-0.10199598017035458	0.5649565718987868	0.02180886068549992	-0.09516451825564257	0.5281199844621172	0.010255445309695244	-0.08315180610664297	0.604212107664212	0.009961100612944751	-0.0728546528781768	0.5874338317672743	0.008483293760012445	-0.06980415376628202	0.5667767690961384	0.006492156421124773	-0.06662089240433744	0.531345990320212	0.00023008620590292406	-0.06410497449013586	0.4622830810018609	-0.023011742144276925	-0.051989820119430985
11	0.39999999999999825	0.49547968207885584	-0.031046099691956597	-0.16978350032793885	0.4907953547272227	-0.03280190239967762	-0.14735641326531965	0.47167580826803546	-0.030039396502705484	-0.12295085028545429	0.47171222838280136	-0.0290727099064777	-0.07835315762540832	0.5686380813289778	0.028668969650247567	-0.1708198043728401	0.5540217693420093	0.025288595557247384	-0.16067404196230756	0.5343056050734607	0.019646775153435492	-0.14613263343126276	0.5036079504779344	0.007447613688425281	-0.11925382103405344	0.5949426291872492	0.03760464114353579	-0.14079368771621298	0.578673504734964	0.03424169313471492	-0.13358215734839057	0.5528638231022192	0.028378571793579277	-0.12137995704863021	0.5158172593373067	0.015237398183401418	-0.1001429706720405	0.604185290492032	0.03447615644988811	-0.1071540946022537	0.5877162123257588	0.02929058008828167	-0.10196957320186018	0.5649959354921025	0.021725982760914864	-0.0951324782868532	0.5281308228364365	0.01026463140371936	-0.08311908043478902	0.6042485989372612	0.009526306571118859	-0.07302915075398794	0.5874699878057554	0.008158001928372016	-0.06992980390306194	0.5668083302913743	0.006306794409755123	-0.06669237305724687	0.5313542788344251	0.00021782858885921463	-0.06408120827501737	0.462283081001861	-0.023011742144276925	-0.051989820119430985
12	0.43333333333333146	0.4955101324542428	-0.031014908906330074	-0.16977804499454632	0.4908100868544899	-0.03276329466808581	-0.14735366721971538	0.4716776295505578	-0.029999607735652467	-0.12295835799739341	0.4717053755717885	-0.02905253029065158	-0.07836023836806957	0.568669036851798	0.028581194379108	-0.17079600676000437	0.5540364683870931	0.025252318897056036	-0.16065665134899743	0.5343047078800298	0.01965951270898103	-0.1461174636401008	0.5035882087791707	0.007486475610034127	-0.11924833740245423	0.5949881173902651	0.03742446978659819	-0.14078309553075835	0.5787080153791141	0.034108713966182425	-0.13357448666039395	0.5528765965068687	0.028337118918984383	-0.12137464897058149	0.5158093244216609	0.015257625797124974	-0.1001357195993442	0.6042360932576479	0.034273242467750875	-0.10718116330346289	0.5877512452909271	0.02914729937838323	-0.10198746568436115	0.5650094206639915	0.02165534226006882	-0.09514203142676683	0.5281170571794176	0.010289920651739615	-0.08312115200024361	0.6042681617347232	0.00908403975289862	-0.0732778463069779	0.5874905302526862	0.007839297591072492	-0.07012163040759245	0.5668275569740757	0.0061113823790642785	-0.06682498615812552	0.531347136360479	0.00023047012017429758	-0.06409770269550188	0.4622830810018609	-0.023011742144276925	-0.051989820119430985
13	0.4666666666666647	0.4955305126830075	-0.030991572470130402	-0.16977967898254087	0.4908131316118285	-0.03274053958453571	-0.14735898698024052	0.4716797065440764	-0.029974480810598503	-0.12296470560046142	0.47169519978902297	-0.029042044498349462	-0.07836627151939798	0.5686939659942986	0.028524785883788817	-0.17077211498441125	0.5540494925570908	0.025237452254044945	-0.16063639422298176	0.5343038761211321	0.019687818584928518	-0.14609947464892456	0.503576734907579	0.007532903945771885	-0.11923431250615697	0.5950321427413965	0.03727450531346499	-0.14075711340847774	0.5787417319931549	0.03400607092261976	-0.13355018241905406	0.5528907966143456	0.02831641109367844	-0.12135319668193204	0.5158038705154819	0.015290438566906595	-0.10011568568677978	0.6042884122495826	0.034096633334863125	-0.10718921810353091	0.5877898813002065	0.029023686382794178	-0.10198694112763168	0.5650266952326738	0.02160638322911368	-0.09513121702427874	0.5281159166114957	0.010312094872539368	-0.0830998286548118	0.604285893815657	0.008650988688564731	-0.07350864654928113	0.5875117914207412	0.007517683727486513	-0.07029226524258345	0.5668482576244634	0.005928611758532987	-0.06692993861841753	0.5313453489747323	0.00024202719992871824	-0.06408570155609436	0.462283081001861	-0.023011742144276925	-0.051989820119430985
14	0.4999999999999978	0.49553793404406155	-0.030973729809420147	-0.16977806184969932	0.49081246521547206	-0.03271702706830237	-0.1473586314595845	0.47167344787423615	-0.029955534431118647	-0.12296821994959442	0.47169065205503014	-0.029034827093079918	-0.07836954281659139	0.5687140490402856	0.028482890414522122	-0.17075097053181695	0.5540603333599083	0.025230271896356515	-0.16061740800258012	0.5343039342914444	0.019712639426890943	-0.14608295717774697	0.5035670532699246	0.007573280525959736	-0.1192219035025218	0.5950760826690725	0.037140016345737936	-0.14073968216106214	0.5787784754800649	0.03391137080070217	-0.13353108674605046	0.5529167846095094	0.02828017730725685	-0.12132976898298828	0.5158092683742946	0.015310157339149644	-0.10009397980810303	0.6043357648033559	0.03394000310018064	-0.1071978147961058	0.5878246647255557	0.02891694514443699	-0.10198701226730988	0.5650447554334965	0.02156006957314316	-0.0951217305197008	0.5281203598398241	0.01032430721364197	-0.08307733397015088	0.6042984607917988	0.00824700703479575	-0.07373807146322739	0.5875294337970636	0.007210700918723778	-0.07046304424446578	0.5668669336797578	0.005754149112120022	-0.06703498871151087	0.5313449322731223	0.0002507833415179572	-0.0640712356411704	0.462283081001861	-0.023011742144276925	-0.051989820119430985
15	0.533333333333331	0.4955460145547742	-0.03097295023247648	-0.16977318919442178	0.4908190157413377	-0.03270420743628211	-0.14735314836680413	0.4716714714106274	-0.02993766349745519	-0.12297000294341742	0.4716911980028238	-0.02902706439660052	-0.07837111932354315	0.5687337173410094	0.028447508923077902	-0.17073438698399745	0.5540740145155174	0.02522011097645105	-0.16060142021397553	0.5343080034691277	0.01972357548827619	-0.14607204521223388	0.5035647573125379	0.007601106278300573	-0.11921064818958202	0.5951111589029017	0.03701283543896661	-0.1407310686613554	0.578806819678129	0.033822382608649115	-0.13352069189026639	0.5529315419940266	0.028257224954111426	-0.12131788176100779	0.5158138248973176	0.015326110782627134	-0.10007619433244602	0.6043742934542219	0.03380156867571271	-0.10721237331519592	0.5878529705254275	0.028821509715836746	-0.10199270843719344	0.5650589525726702	0.02151674731050479	-0.0951186142589742	0.528121666799452	0.010332354428207458	-0.08306593366244111	0.6043030429847054	0.007873455770049387	-0.07396502832739618	0.5875401800249103	0.006933069244893342	-0.07063004728180816	0.5668798087742909	0.005592242247689061	-0.06714246047283129	0.5313401241170653	0.0002674788960672636	-0.06406656048840498	0.4622830810018609	-0.023011742144276925	-0.051989820119430985
16	0.5666666666666642	0.49555891096245064	-0.03095421050644942	-0.16977374903566683	0.49083035975007616	-0.032668522939739764	-0.14735273352982903	0.4716752776003128	-0.029912959892972824	-0.12297426556871409	0.47168841215299295	-0.029013732841405626	-0.07837514878157065	0.5687388709533063	0.02844416719041276	-0.17072095441667795	0.5540736913732698	0.025233913338116087	-0.16059046686231537	0.5343008992575429	0.0197514747278954	-0.14606499296872383	0.5035600965080831	0.007628704869537262	-0.11920093535859921	0.5951304356681739	0.036925208551680244	-0.14072455575908488	0.5788208082356405	0.03376649862670422	-0.13351216332509927	0.5529415776805136	0.028234046718627615	-0.12130286556644816	0.5158033767549312	0.015352037372865834	-0.10006714593591096	0.6043869953537657	0.033732584161864754	-0.10722586081629654	0.5878581538959041	0.02878376765515922	-0.10200028761866164	0.5650559474683323	0.021511357045905233	-0.09511905190370373	0.5281115623588625	0.010360934501777441	-0.08305665910747151	0.6042973665343232	0.007607389578275003	-0.07416121596654629	0.5875402009641033	0.0067305839434098624	-0.0707805926614587	0.5668831058358115	0.005471335574534497	-0.06724354114837788	0.5313299915728422	0.0002964120395351211	-0.06406868940204918	0.462283081001861	-0.023011742144276925	-0.051989820119430985
